<svg xmlns="http://www.w3.org/2000/svg" preserveAspectRatio="xMidYMid" width="22.94" height="20.4" viewBox="0 0 22.94 20.4"><path d="M18.695 20.398v-1.7h-.022c.009-.142.022-.282.022-.425v-9.35a7.226 7.226 0 00-14.45 0v9.35c0 .143.013.283.021.425h-.021v1.7s-4.25-.071-4.25-4.675c0-2.611 1.366-3.762 2.55-4.271V8.923A8.924 8.924 0 0111.47-.001a8.924 8.924 0 018.925 8.924v2.529c1.183.509 2.55 1.66 2.55 4.271 0 4.604-4.25 4.675-4.25 4.675zm-12.75 0h-.85v-9.35h.85v9.35zm11.9 0h-.85v-9.35h.85v9.35z" fill="#f7f7f7" fill-rule="evenodd"/></svg>