<svg xmlns="http://www.w3.org/2000/svg" preserveAspectRatio="xMidYMid" width="23.812" height="19.6" viewBox="0 0 23.812 19.6"><path d="M22.106 19.574H4.256a1.7 1.7 0 01-1.7-1.7h17.85a1.7 1.7 0 001.7-1.7v-13.6a1.7 1.7 0 011.7 1.7v13.6a1.7 1.7 0 01-1.7 1.7zm-2.55-2.551H1.706c-.939 0-1.7-.76-1.7-1.699v-13.6c0-.94.761-1.7 1.7-1.7h17.85c.939 0 1.7.76 1.7 1.7v13.6c0 .939-.761 1.699-1.7 1.699zm0-15.299H1.706v13.6h17.85v-13.6zM6.508 12.122l2.541-4.339 2.54 2.705 3.494-5.555 3.652 9.558H2.538l2.064-4.36 1.906 1.991zM5.106 7.673a1.699 1.699 0 110-3.399 1.7 1.7 0 110 3.399z" fill="#fff" fill-rule="evenodd"/></svg>