<svg xmlns="http://www.w3.org/2000/svg" preserveAspectRatio="xMidYMid" width="32" height="32" viewBox="0 0 32 32"><path d="M31.911 12.589c-.65 2.105-1.759 3.922-3.388 5.551-1.917 1.916-4.256 3.275-6.519 4.589-2.134 1.239-4.15 2.409-5.697 3.956-1.159 1.158-1.942 2.435-2.396 3.904a2.005 2.005 0 01-1.43 1.352 2.003 2.003 0 01-1.896-.528l-10-9.999a2.005 2.005 0 01-.496-2.006c.65-2.106 1.759-3.92 3.388-5.551 1.917-1.916 4.256-3.276 6.52-4.588 2.133-1.239 4.149-2.41 5.697-3.957 1.158-1.158 1.941-2.436 2.395-3.904a2.001 2.001 0 013.326-.823l10 10c.524.524.714 1.295.496 2.004zM19.999 1.999c-2.84 9.202-15.158 8.799-18 18 3.313 3.311 6.689 6.688 10.001 10 2.841-9.201 15.159-8.801 18-18-3.312-3.312-6.688-6.689-10.001-10zm1.23 3.788l-.684.936a14.427 14.427 0 01-1.461 1.698 18.226 18.226 0 01-1.798 1.553l-.003-.002a.506.506 0 01-.701-.729.514.514 0 01.119-.086c.587-.449 1.154-.92 1.676-1.442a13.5 13.5 0 001.36-1.581l.665-.91a.568.568 0 01.087-.124.504.504 0 01.738.684l.002.003zm-4.856 7.072a.535.535 0 01-.472.119 14.38 14.38 0 01-.582-.133 2.266 2.266 0 00-.653-.067c-.226.008-.46.119-.703.339a56.777 56.777 0 011.612 1.792c.34-.163.678-.306 1.013-.437a3.54 3.54 0 011-.229c.332-.023.66.014.989.106.33.091.658.277.984.55.285.237.484.483.596.77.113.283.154.596.119.941a3.487 3.487 0 01-.319 1.1c-.177.383-.417.77-.716 1.137.175.156.351.305.527.445a.341.341 0 01.125.245.381.381 0 01-.094.292.36.36 0 01-.269.141.363.363 0 01-.274-.088 19.37 19.37 0 01-.525-.488c-.361.363-.729.607-1.1.742a2.495 2.495 0 01-1.951-.065 2.044 2.044 0 01-.658-.478c-.168-.191-.254-.381-.254-.566a.64.64 0 01.246-.496c.16-.137.305-.204.442-.201a.905.905 0 01.398.1c.131.065.262.144.394.235.133.091.278.16.434.209.156.047.328.051.521.01.194-.039.413-.16.663-.371a67.115 67.115 0 01-1.774-1.989c-.742.398-1.433.591-2.074.629-.643.038-1.197-.128-1.668-.518-.289-.241-.486-.495-.594-.794a2.117 2.117 0 01-.105-.967c.037-.348.137-.705.305-1.066.166-.36.376-.701.632-1.01-.065-.057-.13-.111-.195-.166a.357.357 0 01-.127-.252.356.356 0 01.092-.285.35.35 0 01.273-.133.372.372 0 01.27.1c.065.06.13.121.195.184.17-.168.399-.341.684-.508.285-.168.586-.287.902-.36.32-.07.629-.074.93-.021.304.054.558.201.769.443.164.188.239.379.229.576a.669.669 0 01-.237.483zm2 5.164c.122-.129.225-.277.315-.444.092-.168.15-.334.18-.499a1.218 1.218 0 00-.014-.489.91.91 0 00-.266-.445 1.008 1.008 0 00-.459-.267 1.247 1.247 0 00-.494-.022 2.123 2.123 0 00-.486.141c-.162.068-.313.134-.455.198.559.639 1.12 1.26 1.679 1.827zm-4.921-4.41c-.141.152-.25.31-.325.468a1.31 1.31 0 00-.136.465c-.016.152-.002.291.039.418a.727.727 0 00.195.322c.216.21.463.303.746.291.283-.012.617-.124 1-.335a35.695 35.695 0 00-1.519-1.629zm1.263 8.566h.002a.502.502 0 01.669.033.502.502 0 010 .71c-.015.015-.033.026-.051.04l.002.002c-.632.48-1.153.914-1.714 1.475a13.757 13.757 0 00-1.361 1.579l-.639.876a.502.502 0 11-.85-.528l-.002-.002.684-.933c.426-.585.918-1.156 1.461-1.699a18.087 18.087 0 011.799-1.553z" fill="#0d0d0d" fill-rule="evenodd"/></svg>