<svg xmlns="http://www.w3.org/2000/svg" preserveAspectRatio="xMidYMid" width="27.5" height="40" viewBox="0 0 27.5 40"><path d="M21.211 28.847c-2.505 6.985-2.149 11.152-7.461 11.152-5.234 0-4.957-4.186-7.461-11.182C4.611 24.128 0 18.788 0 13.748 0 6.155 6.156-.002 13.75-.002S27.5 6.155 27.5 13.748c0 5.001-4.604 10.398-6.289 15.099zm-7.461 8.652c1.476 0 2.035-.158 2.801-2.225l-5.297.663c.647 1.416 1.23 1.562 2.496 1.562zm-3.705-5.123c.288.977.526 1.727.747 2.368l6.199-.776c.138-.442.286-.93.449-1.492.101-.347.22-.735.33-1.105l-7.736.966a.364.364 0 00.011.039zm-.375-1.242l8.499-1.062c.133-.424.287-.874.439-1.323H8.901c.286.84.542 1.633.769 2.385zm4.08-28.635C7.546 2.499 2.5 7.545 2.5 13.748c0 2.542 1.686 5.561 3.317 8.48.737 1.321 1.484 2.671 2.107 4.021H19.59c.619-1.343 1.36-2.689 2.091-4.006C23.313 19.307 25 16.271 25 13.748c0-6.203-5.046-11.249-11.25-11.249zm0 5a6.257 6.257 0 00-6.25 6.249.625.625 0 11-1.25 0c0-4.135 3.364-7.499 7.5-7.499a.625.625 0 110 1.25z" fill="#0d0d0d" fill-rule="evenodd"/></svg>