<svg xmlns="http://www.w3.org/2000/svg" preserveAspectRatio="xMidYMid" width="18.688" height="18.6" viewBox="0 0 18.688 18.6"><path d="M-.006 18.648v-18.7h18.7v18.7h-18.7zm3.4-16.999h-1.7v1.699h1.7V1.649zm0 2.55h-1.7v1.7h1.7v-1.7zm0 2.55h-1.7v1.7h1.7v-1.7zm0 3.4h-1.7v1.699h1.7v-1.699zm0 2.55h-1.7v1.7h1.7v-1.7zm0 2.549h-1.7v1.701h1.7v-1.701zm10.2-13.599h-8.5v6.8h8.5v-6.8zm0 8.5h-8.5v6.8h8.5v-6.8zm3.4-8.5h-1.7v1.699h1.7V1.649zm0 2.55h-1.7v1.7h1.7v-1.7zm0 2.55h-1.7v1.7h1.7v-1.7zm0 3.4h-1.7v1.699h1.7v-1.699zm0 2.55h-1.7v1.7h1.7v-1.7zm0 2.549h-1.7v1.701h1.7v-1.701z" fill="#fff" fill-rule="evenodd"/></svg>