<svg xmlns="http://www.w3.org/2000/svg" preserveAspectRatio="xMidYMid" width="32" height="32" viewBox="0 0 32 32"><path d="M30 13.976v15.023c0 1.655-1.346 3-3 3s-3-1.345-3-3V13.976c-1.208-.912-2-2.346-2-3.976 0-1.631.792-3.066 2-3.979V3c0-1.655 1.346-3 3-3s3 1.345 3 3v3.021c1.208.913 2 2.348 2 3.979 0 1.63-.792 3.064-2 3.976zm-4 15.023a1 1 0 102 0V14.897a4.846 4.846 0 01-1 .102c-.343 0-.677-.034-1-.102v14.102zM28 3a1 1 0 10-2 0v2.099a5.062 5.062 0 012 0V3zm1.865 6.158a3.024 3.024 0 00-.426-.895c-.004-.006-.01-.01-.014-.015a3.026 3.026 0 00-.616-.627c-.004-.003-.007-.007-.01-.008a3.048 3.048 0 00-.799-.43 2.97 2.97 0 00-1-.184c-.353 0-.686.072-1 .184a3.048 3.048 0 00-.799.43c-.003.001-.006.005-.01.008-.235.177-.442.39-.616.627-.004.005-.01.009-.014.015a2.99 2.99 0 00-.426.895A2.92 2.92 0 0024 10c0 .293.055.571.135.838a2.908 2.908 0 00.426.895l.014.016c.174.239.381.45.616.627l.01.008c.241.182.51.327.799.43.314.113.647.185 1 .185.352 0 .685-.072 1-.185a2.99 2.99 0 00.799-.43l.01-.008c.235-.177.442-.388.616-.627l.014-.016a2.94 2.94 0 00.426-.895c.08-.267.135-.545.135-.838a2.92 2.92 0 00-.135-.842zM19 25.976v3.023c0 1.655-1.346 3-3 3s-3-1.345-3-3v-3.023c-1.208-.912-2-2.345-2-3.976 0-1.631.792-3.066 2-3.979V3c0-1.655 1.346-3 3-3s3 1.345 3 3v15.021c1.208.913 2 2.348 2 3.979 0 1.631-.792 3.064-2 3.976zm-4 3.023a1 1 0 102 0v-2.101a4.988 4.988 0 01-2 0v2.101zM17 3a1 1 0 10-2 0v14.099c.323-.064.657-.1 1-.1.343 0 .677.036 1 .1V3zm1.865 18.157c-.015-.052-.03-.106-.049-.156a2.99 2.99 0 00-.377-.738c-.004-.006-.01-.01-.014-.015a3.026 3.026 0 00-.616-.627l-.01-.008a3.063 3.063 0 00-.799-.43 2.991 2.991 0 00-1-.184c-.353 0-.685.073-1 .184-.289.103-.558.25-.799.43l-.01.008c-.235.177-.442.39-.616.627-.004.005-.01.009-.014.015a2.99 2.99 0 00-.377.738c-.019.05-.034.104-.049.156-.08.268-.135.547-.135.843 0 .292.055.571.135.839a2.914 2.914 0 00.426.895l.014.015c.174.239.381.449.616.627a2.932 2.932 0 00.809.437 2.92 2.92 0 001 .186 2.92 2.92 0 001-.186c.289-.101.557-.247.799-.429a3.002 3.002 0 00.626-.635l.014-.015a2.914 2.914 0 00.426-.895c.08-.268.135-.547.135-.839 0-.296-.055-.575-.135-.843zM8 13.976v15.023c0 1.655-1.346 3-3 3s-3-1.345-3-3V13.976C.792 13.064 0 11.63 0 10c0-1.631.792-3.066 2-3.979V3c0-1.655 1.346-3 3-3s3 1.345 3 3v3.021c1.208.913 2 2.348 2 3.979 0 1.63-.792 3.064-2 3.976zM4 28.999a1 1 0 102 0V14.897a4.846 4.846 0 01-1 .102c-.343 0-.677-.034-1-.102v14.102zM6 3a1 1 0 10-2 0v2.099a5.062 5.062 0 012 0V3zm1.865 6.158a2.959 2.959 0 00-.427-.895c-.003-.006-.009-.01-.013-.015a3.026 3.026 0 00-.616-.627c-.004-.003-.007-.007-.01-.008A3.048 3.048 0 006 7.183a2.97 2.97 0 00-1-.184c-.352 0-.686.072-1 .184a3.048 3.048 0 00-.799.43c-.003.001-.006.005-.01.008-.235.177-.442.39-.616.627-.004.005-.01.009-.014.015a2.99 2.99 0 00-.426.895A2.92 2.92 0 002 10c0 .293.055.571.135.838a2.908 2.908 0 00.426.895l.014.016c.174.239.381.45.616.627l.01.008c.241.182.51.327.799.43.314.113.648.185 1 .185s.685-.072 1-.185a2.99 2.99 0 00.799-.43l.01-.008c.235-.177.442-.388.616-.627.004-.006.01-.01.013-.016a2.879 2.879 0 00.427-.895c.08-.267.135-.545.135-.838a2.92 2.92 0 00-.135-.842z" fill="#0d0d0d" fill-rule="evenodd"/></svg>